<?xml version="1.0" encoding="UTF-8" standalone="no"?>
<svg
   xmlns:dc="http://purl.org/dc/elements/1.1/"
   xmlns:cc="http://creativecommons.org/ns#"
   xmlns:rdf="http://www.w3.org/1999/02/22-rdf-syntax-ns#"
   xmlns:svg="http://www.w3.org/2000/svg"
   xmlns="http://www.w3.org/2000/svg"
   xmlns:sodipodi="http://sodipodi.sourceforge.net/DTD/sodipodi-0.dtd"
   xmlns:inkscape="http://www.inkscape.org/namespaces/inkscape"
   sodipodi:docname="back-button.svg"
   inkscape:version="1.0 (6e3e5246a0, 2020-05-07)"
   inkscape:export-ydpi="96"
   inkscape:export-xdpi="96"
   inkscape:export-filename="/home/jaskaran/timer-back-button.png"
   id="svg1638"
   version="1.1"
   viewBox="0 0 20.000002 14.999998"
   height="14.999997mm"
   width="20mm">
  <defs
     id="defs1632" />
  <sodipodi:namedview
     inkscape:window-maximized="1"
     inkscape:window-y="27"
     inkscape:window-x="0"
     inkscape:window-height="1413"
     inkscape:window-width="2560"
     fit-margin-bottom="0"
     fit-margin-right="0"
     fit-margin-left="0"
     fit-margin-top="0"
     showgrid="false"
     inkscape:document-rotation="0"
     inkscape:current-layer="layer1"
     inkscape:document-units="mm"
     inkscape:cy="156.17717"
     inkscape:cx="237.26533"
     inkscape:zoom="1.979899"
     inkscape:pageshadow="2"
     inkscape:pageopacity="0.0"
     borderopacity="1.0"
     bordercolor="#666666"
     pagecolor="#ffffff"
     id="base" />
  <metadata
     id="metadata1635">
    <rdf:RDF>
      <cc:Work
         rdf:about="">
        <dc:format>image/svg+xml</dc:format>
        <dc:type
           rdf:resource="http://purl.org/dc/dcmitype/StillImage" />
        <dc:title></dc:title>
      </cc:Work>
    </rdf:RDF>
  </metadata>
  <g
     transform="translate(-59.204213,-59.57676)"
     id="layer1"
     inkscape:groupmode="layer"
     inkscape:label="Layer 1">
    <path
       sodipodi:nodetypes="cssssssssscssscsssscscc"
       style="fill:#993299;fill-opacity:0.941176;stroke-width:0.0693614"
       d="m 67.17715,74.458996 c -0.1983,-0.08254 -1.521652,-1.217659 -4.058528,-3.481248 -4.142302,-3.696061 -4.02899,-3.572556 -3.846642,-4.192654 0.07248,-0.246473 0.516514,-0.664523 3.919896,-3.690489 3.403378,-3.025969 3.873568,-3.420761 4.150784,-3.485203 0.55043,-0.127954 1.187854,0.130855 1.455446,0.590936 0.1363,0.234347 0.1386,0.721321 0.0048,0.994947 -0.05696,0.116427 -1.223696,1.203808 -2.61137,2.433781 -1.379614,1.222826 -2.50839,2.245559 -2.50839,2.272734 0,0.02718 3.305292,0.04942 7.345104,0.04942 h 7.34505 l 0.248196,0.148717 c 0.407054,0.243892 0.582716,0.534237 0.582716,0.96313 0,0.428893 -0.17566,0.719237 -0.582716,0.963129 L 78.3733,68.174914 h -7.345124 c -4.039812,0 -7.345104,0.02153 -7.345104,0.04782 0,0.02631 1.140138,1.06375 2.533636,2.305437 1.393504,1.241689 2.56862,2.340467 2.611374,2.441731 0.10952,0.259393 0.09656,0.738548 -0.0256,0.947326 -0.14304,0.244446 -0.400876,0.446295 -0.722838,0.565902 -0.35265,0.131013 -0.541926,0.125941 -0.902466,-0.02412 z"
       id="path2233-1" />
  </g>
</svg>
