<?xml version="1.0" encoding="UTF-8" standalone="no"?>
<svg
   xmlns:dc="http://purl.org/dc/elements/1.1/"
   xmlns:cc="http://creativecommons.org/ns#"
   xmlns:rdf="http://www.w3.org/1999/02/22-rdf-syntax-ns#"
   xmlns:svg="http://www.w3.org/2000/svg"
   xmlns="http://www.w3.org/2000/svg"
   xmlns:sodipodi="http://sodipodi.sourceforge.net/DTD/sodipodi-0.dtd"
   xmlns:inkscape="http://www.inkscape.org/namespaces/inkscape"
   sodipodi:docname="new-timer-button.svg"
   inkscape:version="1.0 (6e3e5246a0, 2020-05-07)"
   id="svg1611"
   version="1.1"
   viewBox="0 0 96.627647 96.627647"
   height="96.627647mm"
   width="96.627647mm">
  <defs
     id="defs1605" />
  <sodipodi:namedview
     fit-margin-bottom="0"
     fit-margin-right="0"
     fit-margin-left="0"
     fit-margin-top="0"
     inkscape:window-maximized="1"
     inkscape:window-y="27"
     inkscape:window-x="0"
     inkscape:window-height="1413"
     inkscape:window-width="2560"
     showgrid="false"
     inkscape:document-rotation="0"
     inkscape:current-layer="layer1"
     inkscape:document-units="mm"
     inkscape:cy="309.89435"
     inkscape:cx="149.05504"
     inkscape:zoom="0.35"
     inkscape:pageshadow="2"
     inkscape:pageopacity="0.0"
     borderopacity="1.0"
     bordercolor="#666666"
     pagecolor="#ffffff"
     id="base" />
  <metadata
     id="metadata1608">
    <rdf:RDF>
      <cc:Work
         rdf:about="">
        <dc:format>image/svg+xml</dc:format>
        <dc:type
           rdf:resource="http://purl.org/dc/dcmitype/StillImage" />
        <dc:title></dc:title>
      </cc:Work>
    </rdf:RDF>
  </metadata>
  <g
     transform="translate(-66.395855,-66.173786)"
     id="layer1"
     inkscape:groupmode="layer"
     inkscape:label="Layer 1">
    <circle
       r="47.313824"
       cy="114.48761"
       cx="114.70968"
       id="path10"
       style="fill:none;fill-rule:evenodd;stroke:#40e0d0;stroke-width:2;stroke-miterlimit:4;stroke-dasharray:none;stroke-opacity:1"
       inkscape:export-xdpi="96"
       inkscape:export-ydpi="96" />
    <path
       id="path851"
       d="m 114.33759,129.72864 c -0.96393,-0.14916 -1.83097,-0.88687 -2.14116,-1.82177 -0.0858,-0.25865 -0.093,-0.59696 -0.11662,-5.51106 l -0.0251,-5.2355 -5.18598,-0.0254 c -4.86763,-0.0239 -5.20273,-0.031 -5.45893,-0.11755 -0.4087,-0.13827 -0.80157,-0.39897 -1.11328,-0.73887 -0.483325,-0.52705 -0.693425,-1.07198 -0.693425,-1.79854 0,-1.16599 0.712215,-2.16112 1.817855,-2.53998 0.24303,-0.0834 0.63385,-0.0915 5.44778,-0.11497 l 5.18598,-0.0253 0.0251,-5.2355 c 0.0232,-4.8599 0.0315,-5.25446 0.11391,-5.4998 0.27974,-0.832 0.90948,-1.451575 1.77157,-1.742976 0.3731,-0.126058 1.11574,-0.126058 1.48882,0 0.8593,0.290459 1.49832,0.916026 1.76899,1.731716 0.0858,0.25863 0.093,0.59695 0.11648,5.51106 l 0.0251,5.2355 5.18599,0.0253 c 4.81392,0.0235 5.20476,0.0318 5.44777,0.11497 0.41544,0.14233 0.81835,0.40767 1.12219,0.739 0.48565,0.52958 0.69568,1.07329 0.69568,1.80098 0,1.166 -0.71223,2.16114 -1.81787,2.54001 -0.24301,0.0834 -0.63385,0.0915 -5.44777,0.11498 l -5.18599,0.0254 -0.0251,5.2355 c -0.028,5.84099 -0.004,5.44469 -0.37757,6.07003 -0.19596,0.32744 -0.67906,0.79828 -0.97595,0.95118 -0.4908,0.2528 -1.18314,0.38366 -1.6486,0.31162 z"
       style="fill:#993299;fill-opacity:1;stroke-width:0.0498628"
       inkscape:export-xdpi="96"
       inkscape:export-ydpi="96" />
  </g>
</svg>
