<?xml version="1.0" standalone="no"?>
<!DOCTYPE svg PUBLIC "-//W3C//DTD SVG 20010904//EN"
 "http://www.w3.org/TR/2001/REC-SVG-20010904/DTD/svg10.dtd">
<svg version="1.0" xmlns="http://www.w3.org/2000/svg"
 width="240.000000pt" height="240.000000pt" viewBox="0 0 240.000000 240.000000"
 preserveAspectRatio="xMidYMid meet">
<metadata>
Created by potrace 1.16, written by Peter Selinger 2001-2019
</metadata>
<g transform="translate(0.000000,240.000000) scale(0.100000,-0.100000)"
fill="#000000" stroke="none">
<path d="M200 1200 c0 -385 3 -700 6 -700 12 0 1094 692 1094 700 0 8 -1082
700 -1094 700 -3 0 -6 -315 -6 -700z"/>
<path d="M1500 1200 l0 -600 100 0 100 0 0 600 0 600 -100 0 -100 0 0 -600z"/>
<path d="M2000 1200 l0 -600 100 0 100 0 0 600 0 600 -100 0 -100 0 0 -600z"/>
</g>
</svg>
