<?xml version="1.0" encoding="UTF-8" standalone="no"?>
<svg
   xmlns:dc="http://purl.org/dc/elements/1.1/"
   xmlns:cc="http://creativecommons.org/ns#"
   xmlns:rdf="http://www.w3.org/1999/02/22-rdf-syntax-ns#"
   xmlns:svg="http://www.w3.org/2000/svg"
   xmlns="http://www.w3.org/2000/svg"
   xmlns:sodipodi="http://sodipodi.sourceforge.net/DTD/sodipodi-0.dtd"
   xmlns:inkscape="http://www.inkscape.org/namespaces/inkscape"
   inkscape:version="1.0 (6e3e5246a0, 2020-05-07)"
   sodipodi:docname="reset-timer.svg"
   viewBox="0 0 49.999203 50.000107"
   height="50.000107"
   width="49.999203"
   id="svg892"
   version="1.1">
  <metadata
     id="metadata898">
    <rdf:RDF>
      <cc:Work
         rdf:about="">
        <dc:format>image/svg+xml</dc:format>
        <dc:type
           rdf:resource="http://purl.org/dc/dcmitype/StillImage" />
        <dc:title></dc:title>
      </cc:Work>
    </rdf:RDF>
  </metadata>
  <defs
     id="defs896" />
  <sodipodi:namedview
     inkscape:current-layer="g900"
     inkscape:window-maximized="1"
     inkscape:window-y="27"
     inkscape:window-x="0"
     inkscape:cy="198.07443"
     inkscape:cx="102.48731"
     inkscape:zoom="1.2147177"
     fit-margin-bottom="0"
     fit-margin-right="0"
     fit-margin-left="0"
     fit-margin-top="0"
     showgrid="false"
     id="namedview894"
     inkscape:window-height="1413"
     inkscape:window-width="2560"
     inkscape:pageshadow="2"
     inkscape:pageopacity="0"
     guidetolerance="10"
     gridtolerance="10"
     objecttolerance="10"
     borderopacity="1"
     bordercolor="#666666"
     pagecolor="#ffffff" />
  <g
     transform="translate(-371.54796,-67.419346)"
     id="g900"
     inkscape:label="Image"
     inkscape:groupmode="layer">
    <path
       id="path908"
       d="m 390.21503,107.38764 c -1.07125,-0.0631 -2.3112,-0.25831 -3.51914,-0.55398 -0.67853,-0.16608 -1.92108,-0.54978 -2.22261,-0.68636 -0.0555,-0.0252 -0.16104,-0.0647 -0.23441,-0.0879 -0.0734,-0.0232 -0.20437,-0.0774 -0.29114,-0.12052 -0.0868,-0.0431 -0.17869,-0.0784 -0.2043,-0.0784 -0.0256,0 -0.0782,-0.022 -0.11699,-0.0488 -0.0387,-0.0269 -0.15199,-0.0795 -0.25164,-0.11712 -0.37005,-0.13949 -2.02334,-1.005 -2.3533,-1.23196 -0.0278,-0.0191 -0.1566,-0.10188 -0.28625,-0.18393 -0.12965,-0.0821 -0.25128,-0.1619 -0.27028,-0.17743 -0.019,-0.0155 -0.0796,-0.0568 -0.1347,-0.0918 -0.0856,-0.0543 -0.56924,-0.39296 -0.67335,-0.47148 -1.28962,-0.97269 -2.3224,-1.92853 -3.29954,-3.05373 -0.0926,-0.10664 -0.19869,-0.22792 -0.23573,-0.26951 -0.037,-0.0416 -0.10523,-0.12406 -0.15155,-0.18328 -0.0463,-0.0592 -0.1355,-0.169724 -0.19824,-0.24558 -0.20339,-0.245959 -0.86767,-1.186805 -1.16749,-1.65358 -0.38522,-0.599719 -1.09066,-1.882764 -1.09208,-1.986268 -3.2e-4,-0.02064 -0.0218,-0.05496 -0.0478,-0.07632 -0.026,-0.02136 -0.0569,-0.0768 -0.0686,-0.123343 -0.0118,-0.04656 -0.0673,-0.184576 -0.1233,-0.306768 -0.23471,-0.51203 -0.44711,-1.032757 -0.51865,-1.271477 -0.0138,-0.04584 -0.0366,-0.09827 -0.0509,-0.116592 -0.0142,-0.01832 -0.0594,-0.152127 -0.10034,-0.297351 -0.041,-0.145224 -0.0875,-0.287631 -0.10347,-0.316455 -0.0285,-0.05144 -0.12173,-0.372852 -0.29054,-1.001787 -0.22188,-0.826644 -0.43982,-2.000344 -0.53127,-2.861102 -0.0376,-0.353568 -0.1037,-1.439978 -0.129,-2.118923 -0.008,-0.211532 0.0858,-1.781596 0.13012,-2.179829 0.0622,-0.55995 0.22513,-1.561847 0.33066,-2.034038 0.18765,-0.839716 0.52244,-1.998317 0.72598,-2.512389 0.0368,-0.09304 0.12159,-0.311569 0.18834,-0.48562 0.0667,-0.174051 0.14225,-0.361427 0.16777,-0.41639 0.24619,-0.530191 0.52148,-1.153955 0.52148,-1.181585 0,-0.01885 0.0137,-0.03427 0.0304,-0.03427 0.0167,0 0.0457,-0.04348 0.0644,-0.09663 0.0187,-0.05314 0.15917,-0.319218 0.3121,-0.591274 0.15291,-0.272055 0.29877,-0.532122 0.32412,-0.577925 0.17195,-0.310646 0.82218,-1.260756 1.24555,-1.819987 0.80767,-1.066835 1.89897,-2.224284 2.85385,-3.026795 0.10899,-0.09161 0.22978,-0.196536 0.26839,-0.233179 0.0747,-0.07088 0.2832,-0.23332 0.69344,-0.540287 0.13891,-0.103946 0.2753,-0.208963 0.30308,-0.233374 0.28085,-0.246754 1.39862,-0.954669 2.18893,-1.3863 0.42447,-0.231826 1.48077,-0.754769 1.52456,-0.754769 0.0108,0 0.1306,-0.05047 0.26622,-0.112166 0.13565,-0.06169 0.2845,-0.123486 0.3308,-0.137322 0.0463,-0.01384 0.0994,-0.03633 0.11787,-0.04998 0.0185,-0.01366 0.11703,-0.05126 0.2189,-0.08356 0.10186,-0.0323 0.2231,-0.07842 0.2694,-0.102477 0.13506,-0.07018 1.00963,-0.3458 1.48174,-0.466971 0.17596,-0.04516 0.35023,-0.09554 0.38727,-0.111948 0.117,-0.05182 1.08344,-0.254428 1.91953,-0.402402 0.22975,-0.04066 1.36446,-0.165082 1.8185,-0.199399 0.47495,-0.0359 2.11128,-0.03542 2.59305,7.58e-4 1.45188,0.109023 2.64783,0.309379 4.0662,0.681207 0.3571,0.09361 1.39497,0.425586 1.55768,0.498237 0.0555,0.02481 0.16165,0.06376 0.23574,0.08655 0.0741,0.02279 0.19531,0.06803 0.26939,0.100538 0.0741,0.0325 0.28625,0.12214 0.47147,0.199192 0.67539,0.280971 1.67821,0.783584 2.31601,1.160783 0.49193,0.290937 1.02697,0.633483 1.28731,0.824159 0.35718,0.261612 0.30946,0.267777 0.6825,-0.08817 0.18028,-0.172025 1.02487,-0.998111 1.87687,-1.835748 0.852,-0.837636 1.58698,-1.554749 1.63329,-1.593583 0.0463,-0.03883 0.12005,-0.101097 0.16387,-0.138361 0.2479,-0.210769 0.64296,-0.361255 0.94839,-0.361255 0.53018,0 1.02046,0.380703 1.23483,0.958855 l 0.10764,0.290315 0.002,6.619653 0.002,6.619651 -0.0858,0.191897 c -0.10239,0.229032 -0.20784,0.337216 -0.44348,0.455021 l -0.17568,0.08783 h -6.70419 -6.70415 l -0.27629,-0.08733 c -0.49558,-0.15665 -0.856,-0.433497 -1.03556,-0.795413 -0.11424,-0.230264 -0.11741,-0.627071 -0.007,-0.8574 0.0417,-0.08683 0.0758,-0.167368 0.0758,-0.178982 0,-0.105696 0.57663,-0.718041 2.03667,-2.162822 0.94501,-0.93513 1.82899,-1.814128 1.9644,-1.953328 l 0.24618,-0.253093 -0.14516,-0.09533 c -0.0798,-0.05243 -0.20575,-0.125308 -0.27984,-0.161951 -0.0741,-0.03664 -0.14275,-0.07719 -0.15259,-0.09011 -0.01,-0.01292 -0.10079,-0.06229 -0.20207,-0.109705 -0.10128,-0.04742 -0.20688,-0.100309 -0.23467,-0.117534 -0.10046,-0.0623 -0.81245,-0.371904 -1.17871,-0.512569 -0.92589,-0.355594 -1.7424,-0.55925 -3.14863,-0.785332 -0.46775,-0.0752 -1.66389,-0.109812 -2.42316,-0.07012 -0.40831,0.02134 -0.82574,0.05242 -0.92759,0.06907 -0.10188,0.01665 -0.38079,0.0607 -0.61982,0.09789 -0.23902,0.03719 -0.48149,0.08267 -0.53882,0.101066 -0.0574,0.01839 -0.21787,0.0565 -0.35679,0.08467 -0.48342,0.09805 -1.58861,0.460712 -2.07107,0.679611 -0.0741,0.03362 -0.26351,0.119048 -0.42094,0.189852 -0.24562,0.110464 -0.99098,0.499617 -1.19359,0.62318 -0.34506,0.210439 -0.78848,0.500965 -0.99535,0.652157 -0.2179,0.159252 -0.35896,0.268801 -0.8414,0.653469 -0.046,0.0367 -0.34153,0.318155 -0.65668,0.625453 -0.97426,0.950004 -1.54035,1.667267 -2.24069,2.839017 -0.16494,0.275983 -0.63767,1.221299 -0.74128,1.482349 -0.04,0.100766 -0.11767,0.295637 -0.17261,0.433046 -0.18577,0.464636 -0.46667,1.412062 -0.55307,1.865428 -0.0297,0.15573 -0.0736,0.358665 -0.0976,0.450965 -0.024,0.0923 -0.0686,0.437072 -0.0991,0.766158 -0.0305,0.329085 -0.07,0.681685 -0.0879,0.783554 -0.0416,0.237077 -0.0422,1.253747 -8e-4,1.570588 0.0174,0.133578 0.0491,0.452201 0.0704,0.708054 0.0213,0.255852 0.0591,0.578139 0.0841,0.71619 0.0956,0.528808 0.1853,0.956293 0.23088,1.100442 0.0261,0.08244 0.073,0.253295 0.10426,0.379666 0.0313,0.126372 0.0703,0.253788 0.0868,0.283146 0.0165,0.02936 0.0622,0.165804 0.10172,0.303213 0.0395,0.137408 0.0833,0.264823 0.0973,0.283145 0.0141,0.01832 0.0364,0.07828 0.0496,0.133245 0.0241,0.09986 0.16617,0.448064 0.28544,0.699536 0.25364,0.53476 0.3435,0.71292 0.53763,1.065959 0.2115,0.384647 0.29136,0.516895 0.44253,0.732846 0.0385,0.05496 0.13361,0.1974 0.21141,0.31652 0.16895,0.258695 0.25901,0.379143 0.60596,0.810422 0.57641,0.71647 1.38017,1.503629 2.17905,2.134011 0.41161,0.324799 0.41846,0.329767 0.80822,0.586039 0.13891,0.09134 0.27083,0.181239 0.29316,0.199775 0.18324,0.152144 1.62559,0.893438 2.0141,1.035142 0.11087,0.04048 0.21675,0.08445 0.23527,0.09778 0.0656,0.04728 1.15022,0.398368 1.49858,0.485128 1.39242,0.34678 1.82677,0.39678 3.45178,0.39736 1.29038,4.7e-4 1.66425,-0.0238 2.34048,-0.15229 0.59636,-0.11326 1.41128,-0.3059 1.53225,-0.3622 0.037,-0.0173 0.16585,-0.0611 0.28624,-0.0976 1.11105,-0.336276 2.28822,-0.903387 3.35076,-1.614249 0.11113,-0.07432 0.21721,-0.146936 0.23573,-0.161312 0.0186,-0.0144 0.17006,-0.125688 0.33676,-0.247375 0.77161,-0.563263 1.66516,-1.415933 2.35603,-2.248275 0.25897,-0.311992 0.88213,-1.192142 1.05177,-1.485533 0.55023,-0.95159 1.04227,-2.010573 1.18859,-2.558102 0.0245,-0.09161 0.056,-0.181546 0.07,-0.199866 0.0493,-0.06434 0.33335,-1.170319 0.33407,-1.300803 2.3e-4,-0.03756 0.014,-0.08253 0.0306,-0.09993 0.0276,-0.02886 0.0799,-0.349769 0.17353,-1.064292 0.081,-0.618192 0.10379,-1.116868 0.0894,-1.957467 -0.0151,-0.88691 -0.0149,-0.891599 0.0562,-0.909005 0.0393,-0.0096 1.52626,-0.02067 3.30436,-0.02455 l 3.23288,-0.007 -0.002,1.282482 c -0.003,1.56248 -0.0526,2.170098 -0.28181,3.464365 -0.20679,1.167899 -0.57153,2.51148 -0.92923,3.422942 -0.045,0.114624 -0.12147,0.309495 -0.16998,0.433047 -0.41026,1.044942 -1.17443,2.526194 -1.71453,3.323385 -0.037,0.05464 -0.0825,0.123559 -0.10103,0.153071 -0.0422,0.0672 -0.23992,0.354775 -0.40967,0.595743 -0.162,0.229983 -0.50242,0.682926 -0.6158,0.81935 -0.0472,0.0568 -0.13888,0.168794 -0.2037,0.248864 -0.38746,0.47862 -0.76834,0.89165 -1.38032,1.49687 -0.90349,0.8935 -1.43801,1.35189 -2.3577,2.02187 -0.19448,0.14167 -0.35866,0.26931 -0.36482,0.28363 -0.006,0.0143 -0.0252,0.0261 -0.0422,0.0261 -0.017,0 -0.16357,0.0875 -0.32554,0.19436 -0.5116,0.33765 -0.80631,0.5166 -1.35527,0.82292 -0.2983,0.16645 -1.39094,0.7149 -1.42425,0.7149 -0.0105,0 -0.11489,0.0434 -0.23194,0.0963 -0.11706,0.053 -0.37194,0.15864 -0.56643,0.23484 -0.19447,0.0762 -0.39905,0.15858 -0.45462,0.18312 -0.0556,0.0246 -0.13891,0.0545 -0.18521,0.0666 -0.0463,0.0121 -0.18269,0.0577 -0.30309,0.10135 -0.28938,0.105 -0.73638,0.24469 -0.97206,0.30377 -0.10438,0.0262 -0.22007,0.061 -0.25711,0.0774 -0.0927,0.0412 -1.04942,0.26043 -1.39007,0.3186 -0.15332,0.0262 -0.29363,0.0567 -0.3118,0.0678 -0.0296,0.0181 -0.87783,0.14082 -1.49733,0.21663 -0.74686,0.0914 -2.45766,0.12114 -3.48547,0.0606 z"
       style="fill:#993290;fill-opacity:1;stroke-width:1.26586;stroke-opacity:0.941176" />
  </g>
</svg>
